<?xml version="1.0" encoding="UTF-8"?><svg id="Layer_2" xmlns="http://www.w3.org/2000/svg" xmlns:xlink="http://www.w3.org/1999/xlink" viewBox="0 0 32 32"><defs><style>.cls-1{clip-path:url(#clippath);}.cls-2{fill:none;}.cls-2,.cls-3,.cls-4{stroke-width:0px;}.cls-4{fill:#1e1e1e;}</style><clipPath id="clippath"><rect class="cls-2" x="8" y="8" width="16" height="16"/></clipPath></defs><g id="Layer_1-2"><path class="cls-4" d="m16,32C7.18,32,0,24.82,0,16S7.18,0,16,0s16,7.18,16,16-7.18,16-16,16Zm0-31C7.73,1,1,7.73,1,16s6.73,15,15,15,15-6.73,15-15S24.27,1,16,1Z"/><g class="cls-1"><path class="cls-3" d="m17.38,12.48h-.08c-.15,0-.29-.02-.44-.04-1.98-.28-3.45-1.92-3.5-3.91,0-.15-.03-.36-.26-.5l-.04-.03h-.31l-.04.03c-.06.05-.26.2-.25.48,0,.07,0,.15,0,.22v.08c-.15,1.28-.76,2.29-1.85,3.02-.61.42-1.32.63-2.16.65-.13,0-.27.06-.35.13-.08.09-.12.2-.12.32,0,.25.19.41.45.42.12,0,.25.02.36.03,1.34.13,2.39.8,3.1,1.97.36.58.54,1.24.56,2.01,0,.17.08.31.19.39.07.06.16.09.25.09.04,0,.08,0,.12-.02.21-.05.33-.21.35-.48.04-1.15.46-2.12,1.27-2.88.75-.7,1.65-1.08,2.72-1.11.29,0,.47-.17.48-.42,0-.27-.18-.44-.47-.46h0Zm-4.44,2.88c-.53-1.11-1.33-1.91-2.44-2.44,1.11-.52,1.91-1.32,2.43-2.44.53,1.12,1.33,1.92,2.44,2.44-1.11.53-1.91,1.33-2.43,2.44Z"/><path class="cls-3" d="m23.98,16.65c-.12-.2-.31-.25-.49-.27-.32-.03-.61-.07-.89-.15-1.32-.41-2.19-1.59-2.23-3,0-.36-.23-.48-.44-.48-.27,0-.44.18-.44.48v.04c0,.13-.02.28-.04.41-.28,1.56-1.53,2.66-3.12,2.7-.44.02-.48.3-.49.44,0,.28.18.44.49.45.5.02.92.12,1.27.29,1.19.59,1.8,1.53,1.88,2.87,0,.29.18.48.44.48s.42-.19.44-.49c0-.13.02-.28.04-.44.22-1.53,1.52-2.67,3.08-2.71.15,0,.36-.04.5-.26l.02-.04v-.3l-.02-.04Zm-2.28.19c-.78.41-1.37,1-1.79,1.8-.41-.79-1-1.38-1.8-1.8.79-.41,1.38-1,1.8-1.8.41.79,1,1.38,1.79,1.8Z"/><path class="cls-3" d="m17.65,20.32c-1.31-.05-2.28-1.03-2.32-2.31,0-.3-.18-.48-.44-.49h0c-.12,0-.42.06-.44.5-.05,1.28-1.02,2.26-2.31,2.3-.29,0-.48.18-.48.44s.18.44.47.44c1.31.06,2.28,1.03,2.32,2.31.02.3.18.49.44.49h0c.12,0,.42-.05.44-.49.03-.65.26-1.17.68-1.61.44-.45.98-.68,1.64-.7.28,0,.46-.18.46-.44,0-.27-.18-.44-.47-.45Zm-1.61.44c-.49.29-.87.68-1.16,1.16-.29-.49-.68-.87-1.16-1.16.49-.29.87-.68,1.16-1.16.28.49.68.87,1.16,1.16Z"/></g></g></svg>