<!-- Generated by IcoMoon.io -->
<svg version="1.1" xmlns="http://www.w3.org/2000/svg" width="31" height="32" viewBox="0 0 31 32">
<title>birthday-gift</title>
<path d="M13.949 0.571c-2.333 0.242-4.678 1.043-6.612 2.259-3.563 2.241-6.021 5.685-6.948 9.737-1.207 5.28 0.463 10.854 4.381 14.616 2.419 2.323 5.359 3.736 8.78 4.217 0.665 0.093 3.266 0.093 3.931 0 3.42-0.481 6.36-1.894 8.78-4.217 3.919-3.762 5.588-9.336 4.381-14.616-0.887-3.879-3.262-7.313-6.556-9.483-1.983-1.306-3.954-2.058-6.398-2.44-0.64-0.1-3.029-0.146-3.738-0.074zM17.558 1.605c3.184 0.468 6.033 1.903 8.283 4.173 3.555 3.585 4.976 8.661 3.818 13.643-0.135 0.578-0.534 1.76-0.81 2.393-1.896 4.358-5.866 7.554-10.514 8.463-1.051 0.207-1.649 0.261-2.846 0.259-2.361-0.004-4.283-0.451-6.413-1.494-4.077-1.998-7.012-5.862-7.859-10.346-0.308-1.633-0.309-3.786-0.004-5.363 0.663-3.424 2.453-6.425 5.135-8.612 2.255-1.838 5.025-2.954 7.999-3.223 0.752-0.068 2.393-0.013 3.212 0.108zM11.345 8.423c-0.246 0.178-0.453 0.601-0.532 1.093-0.107 0.663-0.045 1.793 0.127 2.278l0.072 0.205-1.329 0.002c-1.205 0.001-1.35 0.010-1.551 0.101-0.352 0.16-0.373 0.257-0.373 1.685 0 1.036 0.014 1.25 0.086 1.404 0.11 0.231 0.407 0.374 0.78 0.375l0.271 0.001 0.001 3.892c0 3.763 0.003 3.897 0.1 4.056 0.068 0.111 0.166 0.183 0.298 0.219 0.273 0.077 12.17 0.077 12.443 0 0.127-0.032 0.232-0.111 0.296-0.217l0.001-0.002c0.097-0.159 0.1-0.293 0.1-4.056l0.001-3.892 0.271-0.001c0.372-0.001 0.67-0.145 0.78-0.375 0.073-0.154 0.086-0.368 0.086-1.404 0-1.428-0.021-1.525-0.373-1.685-0.201-0.091-0.346-0.1-1.584-0.101-1.277-0.002-1.361-0.008-1.328-0.092 0.207-0.534 0.293-1.836 0.163-2.443-0.105-0.492-0.303-0.897-0.509-1.044-0.217-0.154-0.684-0.189-0.975-0.073-0.675 0.27-1.585 1.18-2.79 2.79l-0.382 0.51-0.132-0.151c-0.16-0.194-0.358-0.445-0.553-0.699l-0.052-0.071c-1.323-1.723-2.189-2.452-2.914-2.452-0.242 0-0.331 0.027-0.498 0.148zM12.391 9.404c0.498 0.323 1.6 1.571 2.166 2.452l0.091 0.142-0.459-0.002c-0.252-0.002-0.773-0.022-1.157-0.046-1.232-0.076-1.265-0.116-1.266-1.555-0.001-1.291 0.047-1.366 0.624-0.991zM19.129 9.342c0.131 0.287 0.181 0.926 0.118 1.504-0.075 0.682-0.168 0.887-0.448 0.984-0.236 0.081-1.205 0.164-1.956 0.167l-0.507 0.001 0.245-0.319c1.064-1.382 2.122-2.474 2.398-2.474 0.047 0 0.115 0.062 0.149 0.137zM13.653 13.809v0.982h-5.069v-1.965h5.069v0.982zM16.55 15.179v2.353h4.757v1.912l-4.784 0.027-0.027 3.491h-1.963l-0.027-3.491-4.784-0.027v-1.912h4.81v-4.706h2.017v2.352zM22.446 13.782v0.957h-5.069v-1.913h5.069v0.956zM13.653 16.162v0.595l-3.905-0.027-0.029-1.164h3.934v0.595zM21.297 16.148l-0.015 0.582-3.905 0.027v-1.191h3.934l-0.015 0.582zM13.653 21.617v1.345h-3.93v-2.689h3.93v1.344zM21.307 21.644v1.319h-3.93v-2.638h3.93v1.319z"></path>
</svg>
