<?xml version="1.0" encoding="utf-8"?>
<!-- Generator: Adobe Illustrator 27.8.0, SVG Export Plug-In . SVG Version: 6.00 Build 0)  -->
<svg version="1.1" id="Layer_1" xmlns="http://www.w3.org/2000/svg" xmlns:xlink="http://www.w3.org/1999/xlink" x="0px" y="0px"
	 viewBox="0 0 32 33" style="enable-background:new 0 0 32 33;" xml:space="preserve">
<style type="text/css">
	.st0{fill:#1E1E1E;}
	.st1{clip-path:url(#SVGID_00000168106731325248099850000012028830734847992459_);}
</style>
<g>
	<path class="st0" d="M16,32.5c-8.8,0-16-7.2-16-16s7.2-16,16-16s16,7.2,16,16S24.8,32.5,16,32.5z M16,1.5c-8.3,0-15,6.7-15,15
		c0,8.3,6.7,15,15,15c8.3,0,15-6.7,15-15C31,8.2,24.3,1.5,16,1.5z"/>
</g>
<g>
	<defs>
		<rect id="SVGID_1_" x="8" y="9" width="16" height="16"/>
	</defs>
	<clipPath id="SVGID_00000118365698694589847450000007311056836575865015_">
		<use xlink:href="#SVGID_1_"  style="overflow:visible;"/>
	</clipPath>
	<g style="clip-path:url(#SVGID_00000118365698694589847450000007311056836575865015_);">
		<path class="st0" d="M11.9,19.3c-0.2,0-0.4-0.1-0.5-0.3c-0.1-0.3,0-0.5,0.3-0.6l7.4-2.7c0.3-0.1,0.5,0,0.6,0.3
			c0.1,0.3,0,0.5-0.3,0.6L11.9,19.3C12,19.3,12,19.3,11.9,19.3z"/>
		<path class="st0" d="M23,9.1c-0.2-0.2-0.5-0.1-0.7,0.1c-0.2,0.2-0.2,0.5,0.1,0.7c0.3,0.2,0.8,0.9,0.7,1.3c0,0.1-0.1,0.3-0.5,0.5
			v-0.8c0-0.3-0.2-0.5-0.5-0.5h-6.3c-0.1,0-0.3,0-0.4,0.2L8.1,18c-0.2,0.2-0.2,0.5,0,0.7l6,6.3c0.1,0.1,0.2,0.2,0.3,0.2
			c0.1,0,0.3-0.1,0.4-0.1l7.5-7.5c0.1-0.1,0.2-0.2,0.2-0.4v-3c0-0.3-0.2-0.5-0.5-0.5c-0.3,0-0.5,0.2-0.5,0.5V17l-7,6.9l-5.3-5.5
			l6.9-7h5.5v0.5V12c-0.1,0-0.2,0-0.4,0.1c-0.2-0.3-0.6-0.5-1-0.5c-0.7,0-1.2,0.6-1.2,1.2c0,0.7,0.6,1.3,1.2,1.3
			c0.6,0,1.2-0.5,1.2-1.1c1.6-0.2,2.4-0.8,2.6-1.6C24.4,10.3,23.2,9.2,23,9.1z M20,12.8c0-0.1,0.1-0.2,0.2-0.2
			c0.2,0,0.3,0.1,0.3,0.2C20.5,13.1,20,13.1,20,12.8z"/>
		<path class="st0" d="M15.2,16.5c-0.3,0-0.6-0.1-0.8-0.3c-0.5-0.5-0.4-1.4,0.1-1.9c0.3-0.3,0.6-0.4,1-0.5c0.4,0,0.7,0.1,1,0.3
			c0.2,0.2,0.4,0.6,0.3,1c0,0.3-0.2,0.7-0.5,0.9C16,16.3,15.6,16.5,15.2,16.5z M15.6,14.8c-0.1,0-0.3,0.1-0.3,0.2
			c-0.2,0.2-0.2,0.4-0.2,0.4c0.1,0.1,0.3,0,0.5-0.1c0.1-0.1,0.1-0.2,0.1-0.3L15.6,14.8C15.7,14.8,15.6,14.8,15.6,14.8z"/>
		<path class="st0" d="M15.4,21.1c-0.3,0-0.6-0.1-0.8-0.3c-0.5-0.5-0.4-1.3,0.1-1.9s1.4-0.6,1.9-0.1c0.3,0.2,0.4,0.5,0.4,0.8
			c0,0.4-0.2,0.8-0.5,1.1C16.2,21,15.8,21.1,15.4,21.1z M15.8,19.5c-0.1,0-0.2,0.1-0.4,0.2c-0.2,0.2-0.2,0.4-0.1,0.5
			c0.1,0.1,0.3,0,0.5-0.1c0.1-0.3,0.2-0.4,0.2-0.5v-0.1C15.9,19.5,15.9,19.5,15.8,19.5z"/>
	</g>
</g>
</svg>
