<?xml version="1.0" encoding="UTF-8"?><svg id="Layer_2" xmlns="http://www.w3.org/2000/svg" viewBox="0 0 32.03 32.03"><defs><style>.cls-1{fill:#1e1e1e;stroke-width:0px;}</style></defs><g id="Layer_1-2"><g id="Layer_1-2"><path class="cls-1" d="m23.33,13.84c-.11-.45-.34-.86-.67-1.19-.47-.47-1.1-.73-1.76-.73s-1.3.26-1.77.73l-.39.39-.38-.39c-.48-.47-1.1-.73-1.77-.73s-1.29.26-1.77.73c-.31.32-.54.71-.65,1.14h-5.05c-1.16,0-2.11.95-2.11,2.12s.95,2.11,2.11,2.11h7.54l2.08,2.08,2.08-2.08h2.08c1.16,0,2.11-.95,2.11-2.11,0-1.01-.7-1.87-1.68-2.07Zm-14.21,3.36c-.71,0-1.3-.58-1.3-1.29s.59-1.3,1.3-1.3h4.99c.02.36.13.72.31,1.04l.54.67.89.88h-6.73Zm9.62,1.77l-3.35-3.36s-.03-.03-.05-.05c-.26-.28-.42-.64-.44-1.03-.01-.04-.01-.07-.01-.12,0-.18.03-.35.09-.53.08-.25.22-.48.41-.67.32-.32.75-.5,1.2-.5s.88.18,1.2.5l.95.95.96-.95c.31-.32.74-.5,1.2-.5s.87.18,1.2.5c.18.19.32.42.41.67.06.18.08.35.08.53v.13c-.02.38-.18.74-.44,1.03-.02,0-.03.03-.05.04,0,0-3.36,3.36-3.36,3.36Zm4.16-1.77h-1.26l.88-.88.54-.67h0c.18-.29.28-.61.32-.95.49.19.82.67.82,1.21,0,.71-.59,1.29-1.3,1.29Z"/></g><path class="cls-1" d="m16.01,32.03C7.18,32.03,0,24.84,0,16.01S7.18,0,16.01,0s16.01,7.18,16.01,16.01-7.18,16.01-16.01,16.01Zm0-31.06C7.72.97.97,7.72.97,16.01s6.75,15.04,15.04,15.04,15.04-6.75,15.04-15.04S24.31.97,16.01.97Z"/></g></svg>